<?xml version="1.0" standalone="no"?>
<!DOCTYPE svg PUBLIC "-//W3C//DTD SVG 20010904//EN"
 "http://www.w3.org/TR/2001/REC-SVG-20010904/DTD/svg10.dtd">
<svg version="1.0" xmlns="http://www.w3.org/2000/svg"
 width="700.000000pt" height="700.000000pt" viewBox="0 0 700.000000 700.000000"
 preserveAspectRatio="xMidYMid meet">
<metadata>
Created by potrace 1.14, written by Peter Selinger 2001-2017
</metadata>
<g transform="translate(0.000000,700.000000) scale(0.100000,-0.100000)"
fill="#000000" stroke="none">
<path d="M491 5277 c-239 -897 -435 -1636 -435 -1641 -1 -12 770 -220 787
-213 7 3 113 385 237 851 124 465 227 846 230 846 3 0 127 -432 275 -960 149
-528 273 -960 277 -960 12 0 780 218 785 223 2 3 0 19 -4 37 -7 24 79 1114
129 1639 2 28 74 -114 427 -853 238 -496 429 -885 435 -882 15 6 730 349 734
351 1 1 -320 674 -714 1496 -394 822 -724 1512 -732 1535 l-16 40 -385 33
c-212 17 -396 32 -408 31 -27 0 -23 33 -73 -570 -22 -267 -41 -494 -43 -505
-1 -11 -60 187 -131 440 -71 253 -133 466 -137 474 -6 13 -746 219 -789 220
-12 1 -115 -374 -449 -1632z"/>
<path d="M5381 6630 c-163 -187 -666 -720 -1230 -1302 -84 -87 -84 -87 -67
-113 9 -14 186 -199 394 -413 207 -213 440 -453 516 -532 76 -80 277 -287 447
-460 l307 -316 -181 -175 -182 -176 -368 379 c-203 208 -372 378 -375 378 -10
0 -587 -562 -587 -570 0 -4 296 -312 658 -684 l658 -677 173 168 c526 512
1366 1338 1366 1344 0 3 -190 202 -422 441 -233 239 -549 565 -703 724 -154
159 -346 357 -427 439 l-147 151 143 149 144 150 28 -26 c153 -139 774 -689
778 -689 6 0 540 598 544 609 3 9 -1380 1248 -1402 1257 -7 3 -36 -22 -65 -56z"/>
<path d="M2660 2944 c-377 -349 -686 -639 -688 -644 -2 -6 -213 -204 -468
-441 -255 -237 -464 -433 -464 -437 0 -4 117 -133 260 -287 166 -178 388 -435
613 -708 l351 -427 978 0 978 0 0 493 c0 270 3 589 7 708 l6 217 -369 6 c-203
4 -452 11 -553 17 -101 6 -184 9 -186 7 -2 -2 -6 -75 -10 -164 l-7 -161 143
-7 c79 -4 144 -8 145 -9 1 -1 -1 -80 -4 -175 l-5 -172 -337 0 -337 0 -253 307
c-180 218 -250 310 -244 319 5 8 178 170 384 360 206 191 377 353 380 359 7
15 331 315 341 315 4 0 175 -172 379 -382 205 -211 378 -383 386 -383 14 0
584 551 584 565 0 5 -255 271 -567 592 -311 320 -606 625 -656 676 -49 50 -92
92 -96 92 -3 0 -314 -286 -691 -636z"/>
</g>
</svg>
